#define aout_width 14
#define aout_height 14
static unsigned char aout_bits[] = {
   0x00, 0x00, 0x00, 0x00, 0x00, 0x00, 0xc0, 0x00, 0x20, 0x01, 0x10, 0x02,
   0x10, 0x02, 0xf0, 0x03, 0x10, 0x02, 0x10, 0x02, 0x10, 0x02, 0x00, 0x00,
   0x00, 0x00, 0x00, 0x00};
