#define soln_width 14
#define soln_height 14
static unsigned char soln_bits[] = {
   0x00, 0x00, 0x00, 0x00, 0x00, 0x00, 0xe0, 0x01, 0x10, 0x02, 0x10, 0x00,
   0x60, 0x00, 0x80, 0x01, 0x00, 0x02, 0x10, 0x02, 0x10, 0x02, 0xe0, 0x01,
   0x00, 0x00, 0x00, 0x00};
